#!OML:ASF E:/inclinewalkrobotboard/Project1/Captureday1/Session1/subject1.ASF
:FULLY-SPECIFIED
:DEGREES
276
root 0 0 0 1.990111307328324 -10.646809641580997 1.018757915160926
lowerback 0.05138330746074127 -1.8230010787045143 -2.656325931574952
upperback -0.20090295022449217 -2.379288201195142 1.9328521035521247
thorax -0.08804221540102564 -1.2036426092335306 3.4246609935697663
lowerneck -26.76012889224684 -1.7929464895678646 -7.616675628414912
upperneck 23.600384469128805 0.097187252489774 2.3363635390325315
head 12.306114830127921 -0.4478881231773375 2.2615580913143227
rclavicle 4.014864769965184E-15 -2.1316216263790766E-15
rhumerus -34.35376372104679 -3.7414848800894327 -77.8897774200117
rradius 28.486500862365126
rwrist 20.636649746225547
rhand -17.62677232245979 8.900035377001188
rfingers 7.125019999999955
rthumb 8.624173593703834 -20.91338765351653
lclavicle 8.50868134301111E-16 6.775593810021836E-16
lhumerus -22.822286413154842 -8.672166372136283 91.26850086457893
lradius 64.96668778234077
lwrist 4.751211609953507
lhand -27.17672568764481 23.496588230787857
lfingers 7.125019999999983
lthumb -0.6150178164569073 53.60796548649171
rfemur -36.57134830107297 4.4613271558995065 19.746035105025562
rtibia 25.194810657683
rfoot -4.828474814212404 -11.265391322210842
rtoes 1.083399904676285
lfemur 16.53687322191003 -3.0307388940831927 -24.155256485796066
ltibia 35.32093652148829
lfoot 0.4568932380155797 -14.885790349353437
ltoes -17.066772900856837
277
root 0 0 0 1.8965589425095586 -10.423662192313877 0.9936899432893449
lowerback 0.2291889487979486 -1.7365868289585529 -2.6344979429268642
upperback -0.3026676783407891 -2.2563574953987997 2.0220389672701398
thorax -0.3075485194165475 -1.1401276459185081 3.507361313726424
lowerneck -26.719566628769073 -1.7922503615145566 -7.446908360564081
upperneck 22.461233148903954 0.06608431591235064 2.419920634155659
head 11.917241595913389 -0.42821286454261887 2.252772745813919
rclavicle 3.611494794240042E-15 -1.7872920612078465E-15
rhumerus -34.48048595091842 -4.466072070329464 -77.93193314230936
rradius 28.42348619466331
rwrist 20.812944311984655
rhand -17.477303326454596 8.841871010104724
rfingers 7.125019999999955
rthumb 8.769708092767251 -20.950493753936826
lclavicle -7.653179354074932E-16 8.729875333540896E-16
lhumerus -23.181698853688086 -7.776052601887818 91.53463204310638
lradius 64.30482738672718
lwrist 4.530454284773352
lhand -27.141433634239547 22.934337595492586
lfingers 7.125019999999988
lthumb -0.5851392283226655 53.03997630618712
rfemur -32.627668892922856 5.45084833774713 26.114423757391783
rtibia 23.393745217248576
rfoot -4.402413269468674 -9.849555525148748
rtoes 8.051375475434027
lfemur 4.942514379757239 -1.528621783809169 -19.520861139253476
ltibia 46.00449064567984
lfoot 8.737102933195407 -16.080148884458765
ltoes -13.316958796919417
278
root 0 0 0 1.825391539168641 -10.269503474106585 0.9326604459334995
lowerback 0.3266688929018713 -1.6648600012110069 -2.609421515419699
upperback -0.36837589793872294 -2.1557063665711103 2.0410717115295682
thorax -0.4440246169130344 -1.089055308888693 3.5135942278563546
lowerneck -26.23002410406222 -1.7571354344138594 -7.3864760216856125
upperneck 22.582744339939932 0.06861712354039762 2.405245120815231
head 11.895377477086637 -0.43532757918101506 2.2450503380389724
rclavicle 2.6834759238611333E-15 -1.4001258098133718E-15
rhumerus -34.41129179160451 -5.011579866311939 -78.14534211180413
rradius 28.495295527643272
rwrist 20.828396825427262
rhand -17.362572500401427 8.838375069071482
rfingers 7.125019999999951
rthumb 8.88166118846403 -20.929266592133672
lclavicle -1.4234855333176658E-15 1.3448510478882832E-15
lhumerus -23.528603372387423 -6.294677683251612 92.00452994549411
lradius 63.45718759571439
lwrist 3.955033213897197
lhand -27.328345178097322 22.171150870044865
lfingers 7.1250199999999975
lthumb -0.7674402384097831 52.25322724205599
rfemur -22.97188858135823 6.462737993056994 32.87756270196712
rtibia 23.657111377298712
rfoot -6.252916994877857 -8.824398857154593
rtoes 12.236381057203527
lfemur -3.375272332711866 -0.5646941286073519 -16.9695227855594
ltibia 52.35721740059662
lfoot 11.135361913516375 -14.186192580812195
ltoes -8.630991113834005
279
root 0 0 0 1.8001616557694344 -10.219270834620604 0.9037722171027621
lowerback 0.3436844516773254 -1.632554088274674 -2.600210023713634
upperback -0.395726435300526 -2.114627892196055 2.023723588892911
thorax -0.4897522971535807 -1.0667213755654776 3.489597494696162
lowerneck -25.938613078709505 -1.7378267463695452 -7.381027895473549
upperneck 22.896211506478025 0.06792378756761241 2.38323014841693
head 11.962060854688103 -0.44723853699826843 2.2412911543087244
rclavicle 1.824714723401508E-15 -1.1838736216147194E-15
rhumerus -34.16101087687501 -5.3251517265558075 -78.52886890438451
rradius 28.72299059723601
rwrist 20.69185278626362
rhand -17.297403842614987 8.871667681677943
rfingers 7.125019999999947
rthumb 8.945163978686026 -20.8779625076987
lclavicle -2.4517549707777324E-15 1.5811237586120963E-15
lhumerus -23.661663645708536 -5.220439899959609 92.40117777842114
lradius 62.93864944533506
lwrist 3.3804508645133655
lhand -27.63783971634059 21.65386574161895
lfingers 7.1250200000000055
lthumb -1.064038964127188 51.709888958959525
rfemur -15.261062297302256 7.683433406765063 36.35158025281138
rtibia 20.43037635030457
rfoot -13.381698239030795 -8.907991512797285
rtoes 12.521702568625653
lfemur -9.966936935842343 0.7620634702069595 -14.2917379408939
ltibia 54.973586742627106
lfoot 7.670212783091463 -10.763374657131099
ltoes -10.16694952976597
280
root 0 0 0 1.7941606524683347 -10.216479112713769 0.8970424678283629
lowerback 0.30868348823950353 -1.6159427303476497 -2.6106073694830623
upperback -0.424712928044229 -2.095935923841593 2.0074785898718064
thorax -0.5043628911258997 -1.0551498181880306 3.476825836433062
lowerneck -25.82571082229153 -1.745072456059535 -7.40155664683291
upperneck 23.081936497501452 0.04443391634714544 2.4021236969153876
head 12.008155084416597 -0.4628850410768941 2.2496425306985266
rclavicle 2.165702975823746E-15 -8.763815894927582E-16
rhumerus -33.723757583871354 -5.38008823678305 -79.09348533047168
rradius 29.12021880151122
rwrist 20.39993631912273
rhand -17.296586324310464 8.938063580426267
rfingers 7.1250199999999415
rthumb 8.946570462541851 -20.80137592696938
lclavicle -3.1881228864764337E-15 2.137198053079041E-15
lhumerus -23.63194963177595 -4.776688553944438 92.64168771123312
lradius 62.703641760558455
lwrist 2.979359743284366
lhand -27.924367240278382 21.306988186514612
lfingers 7.125020000000008
lthumb -1.341495859660938 51.342073052461984
rfemur -7.047516786635134 8.638299906490687 38.57749542371205
rtibia 17.178999096078893
rfoot -20.437258246422005 -8.916175614676156
rtoes 10.869755566987841
lfemur -16.25792988834718 2.218647206746615 -13.06155367918394
ltibia 57.63286734070587
lfoot 2.709818248315221 -7.672817366340324
ltoes -10.054228385619007
